<svg width="916" height="657" viewBox="0 0 916 657" fill="none" xmlns="http://www.w3.org/2000/svg">
<g clip-path="url(#clip0_159_57)">
<path d="M99.0308 304.978C103.023 260.057 123.12 216.647 151.79 180.745C152.989 179.244 154.202 177.756 155.429 176.282C158.19 172.966 161.022 169.713 163.926 166.522C167.479 162.591 171.135 158.75 174.895 155C177.956 151.913 181.088 148.893 184.291 145.938C186.763 143.634 189.264 141.375 191.793 139.16C222.218 112.372 257.17 90.2661 293.181 70.9335C363.459 33.2173 440.49 4.64605 520.613 0.485436C600.726 -3.6647 684.36 18.6918 743.112 71.9345C822.294 143.686 844.393 263.362 812.245 363.956C790.863 430.879 747.221 491.421 687.827 530.962C628.946 570.159 554.666 587.803 484.366 576.27C428.247 609.502 354.78 610.138 293.769 585.54C261.215 572.412 231.999 552.891 206.369 529.304C194.631 518.48 183.648 506.904 173.493 494.654C172.455 493.413 171.428 492.162 170.411 490.9C166.152 485.655 162.032 480.302 158.051 474.842C152.336 467.011 146.91 459.006 141.773 450.827C140.361 448.575 138.959 446.312 137.589 444.028C136.669 442.496 135.738 440.952 134.828 439.399C134.807 439.367 134.793 439.331 134.785 439.294C120.541 414.884 108.898 388.836 102.83 361.61C101.76 356.792 100.861 351.954 100.165 347.074V347.063C99.5551 342.924 99.0949 338.763 98.7845 334.582C98.0528 324.723 98.1352 314.824 99.0308 304.978V304.978Z" fill="#3F3D56"/>
<path opacity="0.3" d="M308.097 237.068L466.976 366.032L312.628 231.902C312.329 231.411 311.915 230.997 311.419 230.694C310.923 230.391 310.36 230.207 309.776 230.158C309.193 230.11 308.606 230.197 308.064 230.413C307.522 230.63 307.041 230.969 306.661 231.402C306.281 231.836 306.012 232.352 305.877 232.907C305.742 233.462 305.745 234.041 305.885 234.595C306.026 235.148 306.3 235.662 306.684 236.092C307.069 236.522 307.553 236.856 308.097 237.068V237.068Z" fill="#F0F0F0"/>
<path d="M672.449 302.694C619.846 302.694 577.204 344.244 577.204 395.499C577.204 446.753 619.846 488.303 672.449 488.303C725.051 488.303 767.694 446.753 767.694 395.499C767.694 344.244 725.051 302.694 672.449 302.694Z" fill="#F2F2F2"/>
<path d="M587.905 401.755C587.904 390.663 590.146 379.68 594.502 369.432C598.858 359.184 605.243 349.873 613.292 342.029C621.342 334.186 630.898 327.965 641.416 323.72C651.933 319.476 663.205 317.292 674.589 317.293C684.735 317.298 694.803 319.028 704.34 322.402C719.251 327.696 732.387 336.873 742.316 348.937C752.245 361 758.587 375.486 760.653 390.818C762.718 406.15 760.426 421.741 754.028 435.892C747.63 450.043 737.37 462.213 724.365 471.076C711.36 479.939 696.109 485.156 680.272 486.158C664.435 487.161 648.62 483.911 634.547 476.762C620.475 469.614 608.684 458.84 600.461 445.615C592.237 432.389 587.894 417.219 587.905 401.755V401.755Z" fill="white"/>
<path d="M689.571 403.841C674.795 403.841 662.817 415.512 662.817 429.91C662.817 444.307 674.795 455.978 689.571 455.978C704.347 455.978 716.326 444.307 716.326 429.91C716.326 415.512 704.347 403.841 689.571 403.841Z" fill="#E4E4E4"/>
<path d="M591.287 425.186C597.085 422.468 603.695 421.877 609.904 423.522C616.113 425.166 621.507 428.936 625.095 434.14C628.683 439.344 630.227 445.634 629.442 451.857C628.658 458.08 625.598 463.819 620.824 468.022C606.636 457.093 596.308 442.116 591.287 425.186Z" fill="#F2F2F2"/>
<path d="M645.694 364.216C640.375 364.216 636.063 368.418 636.063 373.601C636.063 378.784 640.375 382.986 645.694 382.986C651.014 382.986 655.326 378.784 655.326 373.601C655.326 368.418 651.014 364.216 645.694 364.216Z" fill="#E4E4E4"/>
<path d="M685.291 320.421C685.291 319.597 685.403 318.777 685.622 317.981C692.013 318.76 698.292 320.244 704.34 322.403C703.837 324.667 702.494 326.67 700.567 328.027C698.64 329.384 696.266 329.999 693.901 329.753C691.537 329.507 689.35 328.418 687.76 326.695C686.171 324.973 685.291 322.738 685.291 320.421Z" fill="#F2F2F2"/>
<path d="M742.01 405.927C742.01 401.165 743.867 396.582 747.205 393.105C750.544 389.628 755.113 387.517 759.988 387.199C762.195 399.594 761.552 412.312 758.105 424.435C753.608 423.705 749.523 421.444 746.576 418.055C743.629 414.666 742.011 410.369 742.01 405.927Z" fill="#F2F2F2"/>
<path d="M266.989 435.744C264.801 435.744 263.027 437.473 263.027 439.605C263.027 441.737 264.801 443.465 266.989 443.465C269.177 443.465 270.951 441.737 270.951 439.605C270.951 437.473 269.177 435.744 266.989 435.744Z" fill="#F9A826"/>
<path d="M303.54 529.668C302.261 529.668 301.225 530.678 301.225 531.924C301.225 533.17 302.261 534.179 303.54 534.179C304.818 534.179 305.854 533.17 305.854 531.924C305.854 530.678 304.818 529.668 303.54 529.668Z" fill="#F0F0F0"/>
<path d="M674.888 87.5435C673.61 87.5435 672.574 88.5533 672.574 89.799C672.574 91.0447 673.61 92.0544 674.888 92.0544C676.167 92.0544 677.203 91.0447 677.203 89.799C677.203 88.5533 676.167 87.5435 674.888 87.5435Z" fill="#F0F0F0"/>
<path d="M290.399 308.976C289.121 308.976 288.084 309.985 288.084 311.231C288.084 312.477 289.121 313.487 290.399 313.487C291.678 313.487 292.714 312.477 292.714 311.231C292.714 309.985 291.678 308.976 290.399 308.976Z" fill="#F0F0F0"/>
<path d="M589.11 287.674C586.922 287.674 585.148 289.402 585.148 291.535C585.148 293.667 586.922 295.395 589.11 295.395C591.298 295.395 593.072 293.667 593.072 291.535C593.072 289.402 591.298 287.674 589.11 287.674Z" fill="#F9A826"/>
<path d="M732.512 204.483C722.179 204.483 713.803 212.645 713.803 222.713C713.803 232.782 722.179 240.944 732.512 240.944C742.846 240.944 751.222 232.782 751.222 222.713C751.222 212.645 742.846 204.483 732.512 204.483Z" fill="#F9A826"/>
<path d="M629.941 200.16C628.663 200.16 627.627 201.17 627.627 202.416C627.627 203.661 628.663 204.671 629.941 204.671C631.22 204.671 632.256 203.661 632.256 202.416C632.256 201.17 631.22 200.16 629.941 200.16Z" fill="#F0F0F0"/>
<path d="M394.504 552.609C393.226 552.609 392.189 553.619 392.189 554.864C392.189 556.11 393.226 557.12 394.504 557.12C395.783 557.12 396.819 556.11 396.819 554.864C396.819 553.619 395.783 552.609 394.504 552.609Z" fill="#F0F0F0"/>
<path d="M532.556 71.9022C531.277 71.9022 530.241 72.912 530.241 74.1577C530.241 75.4033 531.277 76.4131 532.556 76.4131C533.834 76.4131 534.871 75.4033 534.871 74.1577C534.871 72.912 533.834 71.9022 532.556 71.9022Z" fill="#F0F0F0"/>
<path d="M566.801 531.754C565.523 531.754 564.486 532.764 564.486 534.009C564.486 535.255 565.523 536.265 566.801 536.265C568.08 536.265 569.116 535.255 569.116 534.009C569.116 532.764 568.08 531.754 566.801 531.754Z" fill="#F0F0F0"/>
<path d="M506.872 422.265C505.594 422.265 504.557 423.275 504.557 424.521C504.557 425.767 505.594 426.776 506.872 426.776C508.15 426.776 509.187 425.767 509.187 424.521C509.187 423.275 508.15 422.265 506.872 422.265Z" fill="#F0F0F0"/>
<path d="M598.608 153.606C597.329 153.606 596.293 154.616 596.293 155.862C596.293 157.107 597.329 158.117 598.608 158.117C599.886 158.117 600.923 157.107 600.923 155.862C600.923 154.616 599.886 153.606 598.608 153.606Z" fill="#F0F0F0"/>
<path d="M327.855 139.008C326.577 139.008 325.54 140.018 325.54 141.263C325.54 142.509 326.577 143.519 327.855 143.519C329.134 143.519 330.17 142.509 330.17 141.263C330.17 140.018 329.134 139.008 327.855 139.008Z" fill="#F0F0F0"/>
<path d="M447.714 270.394C446.435 270.394 445.399 271.404 445.399 272.65C445.399 273.895 446.435 274.905 447.714 274.905C448.992 274.905 450.029 273.895 450.029 272.65C450.029 271.404 448.992 270.394 447.714 270.394Z" fill="#F0F0F0"/>
<path d="M386.714 422.635C385.436 422.635 384.399 423.645 384.399 424.891C384.399 426.136 385.436 427.146 386.714 427.146C387.993 427.146 389.029 426.136 389.029 424.891C389.029 423.645 387.993 422.635 386.714 422.635Z" fill="#F0F0F0"/>
<path d="M275.812 347.363C273.277 347.363 271.222 349.365 271.222 351.835C271.222 354.305 273.277 356.307 275.812 356.307C278.347 356.307 280.402 354.305 280.402 351.835C280.402 349.365 278.347 347.363 275.812 347.363Z" fill="#FF6584"/>
<path d="M462.022 495.433C459.487 495.433 457.432 497.435 457.432 499.905C457.432 502.375 459.487 504.377 462.022 504.377C464.556 504.377 466.611 502.375 466.611 499.905C466.611 497.435 464.556 495.433 462.022 495.433Z" fill="#FF6584"/>
<path d="M462.022 187.822C459.487 187.822 457.432 189.824 457.432 192.294C457.432 194.764 459.487 196.767 462.022 196.767C464.556 196.767 466.611 194.764 466.611 192.294C466.611 189.824 464.556 187.822 462.022 187.822Z" fill="#FF6584"/>
<path d="M176.061 166.522C177.849 166.52 179.588 165.951 181.015 164.902C182.441 163.852 183.479 162.378 183.97 160.703C184.186 159.986 184.295 159.241 184.291 158.493V145.938C181.091 148.889 177.959 151.909 174.895 154.999C171.139 158.753 167.482 162.594 163.926 166.522H176.061Z" fill="#F9A826"/>
<path d="M146.922 101.287C160.74 101.287 175.885 101.796 192.358 102.814C277.558 108.085 387.918 126.414 503.109 154.422C618.3 182.429 724.559 216.771 802.313 251.12C840.189 267.853 869.258 283.692 888.713 298.197C909.311 313.554 918.321 326.94 915.493 337.981C909.984 359.492 861.202 364.198 821.25 364.358L821.236 361.23C876.102 361.01 908.469 352.484 912.378 337.224C917.356 317.787 876.755 287.442 800.987 253.969C723.404 219.696 617.34 185.42 502.331 157.456C387.323 129.493 277.166 111.196 192.154 105.936C109.132 100.797 58.6576 108.999 53.6799 128.436C49.5471 144.574 76.7935 168.348 130.4 195.379L128.924 198.157C89.9731 178.516 44.76 150.345 50.5645 127.679C53.3925 116.637 67.8 108.946 93.3874 104.819C107.973 102.466 125.889 101.287 146.922 101.287Z" fill="#F9A826"/>
<path d="M196.861 425.283H211.299V422.671H196.861V425.283Z" fill="#2F2E41"/>
<path d="M148.473 325.468H210.435C212.745 325.466 214.96 324.571 216.593 322.98C218.226 321.389 219.144 319.231 219.146 316.98V183.164C219.14 174.096 216.588 165.203 211.767 157.446C206.945 149.69 200.038 143.366 191.793 139.161C189.257 141.371 186.756 143.631 184.291 145.938C181.091 148.889 177.959 151.91 174.895 155C171.139 158.754 167.482 162.595 163.926 166.522C161.015 169.713 158.182 172.966 155.429 176.282C154.198 177.753 152.985 179.24 151.79 180.745C123.12 216.647 103.022 260.057 99.0307 304.978C105.431 311.462 113.109 316.619 121.605 320.14C130.101 323.661 139.24 325.474 148.473 325.468Z" fill="#2F2E41"/>
<path d="M659.091 63.3055C697.188 63.3045 732.605 64.5784 764.312 67.1486C805.756 70.509 838.598 75.9111 861.923 83.2033C886.619 90.9251 899.721 100.583 900.864 111.908C903.094 133.971 858.77 154.374 821.195 167.605L820.104 164.662C871.704 146.493 899.251 127.867 897.67 112.214C895.656 92.2774 846.952 76.9885 764.046 70.2667C679.155 63.3839 567.438 65.8228 449.473 77.1382C331.508 88.4506 221.446 107.28 139.561 130.157C59.5919 152.499 14.8815 176.747 16.8954 196.684C18.5676 213.236 52.4278 226.707 112.239 234.618L111.807 237.717C68.3477 231.97 16.0489 220.239 13.7006 196.99C12.5562 185.664 23.4748 173.703 46.1511 161.439C67.5701 149.855 98.7001 138.318 138.676 127.15C220.742 104.222 331.007 85.356 449.159 74.0242C523.278 66.9164 594.964 63.3055 659.091 63.3055Z" fill="#F9A826"/>
<path d="M18.7098 185.713C8.37665 185.713 0 193.875 0 203.944C0 214.012 8.37665 222.174 18.7098 222.174C29.043 222.174 37.4197 214.012 37.4197 203.944C37.4197 193.875 29.043 185.713 18.7098 185.713Z" fill="#F9A826"/>
<path d="M561.286 620.539C550.952 620.539 542.576 628.701 542.576 638.77C542.576 648.838 550.952 657 561.286 657C571.619 657 579.995 648.838 579.995 638.77C579.995 628.701 571.619 620.539 561.286 620.539Z" fill="#E6E6E6"/>
<path d="M895.178 186.756C884.845 186.756 876.468 194.918 876.468 204.986C876.468 215.055 884.845 223.217 895.178 223.217C905.511 223.217 913.888 215.055 913.888 204.986C913.888 194.918 905.511 186.756 895.178 186.756Z" fill="#E6E6E6"/>
<path d="M779.6 532.72C773.274 532.72 768.147 537.716 768.147 543.879C768.147 550.043 773.274 555.039 779.6 555.039C785.925 555.039 791.053 550.043 791.053 543.879C791.053 537.716 785.925 532.72 779.6 532.72Z" fill="#FF6584"/>
<path d="M833.108 109.364C826.783 109.364 821.655 114.361 821.655 120.524C821.655 126.687 826.783 131.684 833.108 131.684C839.434 131.684 844.562 126.687 844.562 120.524C844.562 114.361 839.434 109.364 833.108 109.364Z" fill="#FF6584"/>
<path d="M51.8851 291.845C45.5596 291.845 40.4318 296.842 40.4318 303.005C40.4318 309.168 45.5596 314.165 51.8851 314.165C58.2106 314.165 63.3384 309.168 63.3384 303.005C63.3384 296.842 58.2106 291.845 51.8851 291.845Z" fill="#FF6584"/>
<path d="M225.253 14.7028C214.919 14.7028 206.543 22.8649 206.543 32.9332C206.543 43.0016 214.919 51.1636 225.253 51.1636C235.586 51.1636 243.962 43.0016 243.962 32.9332C243.962 22.8649 235.586 14.7028 225.253 14.7028Z" fill="#E6E6E6"/>
</g>
<defs>
<clipPath id="clip0_159_57">
<rect width="916" height="657" fill="white" transform="matrix(-1 0 0 -1 916 657)"/>
</clipPath>
</defs>
</svg>
