<svg width="611" height="683" viewBox="0 0 611 683" fill="none" xmlns="http://www.w3.org/2000/svg">
<g clip-path="url(#clip0_159_97)">
<path d="M589.617 285.937C559.061 337.432 501.405 349.224 453.699 331.289C438.09 325.277 423.031 317.015 408.796 306.654C400.527 300.736 392.457 294.245 384.55 287.328C382.605 285.633 380.66 283.913 378.735 282.157C377.423 280.976 376.115 279.779 374.811 278.569C358.485 263.431 342.799 246.825 327.376 230.315C288.875 189.1 249.319 146.617 202.015 126.952C192.27 122.902 179.662 121.008 173.635 131.888C168.407 141.333 171.598 154.707 176.023 164.839C192.434 202.369 222.225 226.066 252.042 244.288C281.859 262.51 313.443 277.274 339.363 303.916C365.283 330.559 385.071 372.903 379.77 415.648C375.2 452.483 352.379 482.41 325.846 495.453C299.313 508.488 269.72 506.672 242.138 498.208C214.556 489.736 188.373 474.955 161.753 462.216C145.704 454.525 124.723 449.207 114.074 466.804C105.08 481.672 110.25 505.125 121.202 517.499C132.154 529.873 146.977 534.018 161.12 537.737C205.035 549.294 248.95 560.849 292.864 572.4C306.335 575.937 320.123 579.639 331.86 589.058C343.597 598.469 353.065 614.91 352.729 633.01C352.393 650.85 342.482 666.613 330.336 674.512C318.197 682.402 304.179 683.619 290.655 682.767C239.976 679.569 94.6818 573.46 59.8337 559.896C37.4412 551.189 12.9587 538.398 3.5162 510.261C-8.24054 475.233 11.1058 432.853 37.5137 416.856C63.9152 400.849 94.5234 404.395 123.299 409.782C152.074 415.17 181.798 422.026 209.809 411.79C237.819 401.553 263.482 368.185 260.72 330.055C258.313 296.878 235.637 271.878 211.774 260.859C193.094 252.23 173.22 249.884 153.597 246C148.151 244.931 142.724 243.732 137.35 242.255C123.587 238.455 110.163 232.776 97.2929 225.31C83.7878 217.492 70.9577 207.788 59.0227 196.365C49.5034 187.267 40.6074 177.087 32.4368 165.942C31.1904 164.239 29.9573 162.498 28.7374 160.72C27.5771 159.017 26.4296 157.279 25.3089 155.506C10.7234 132.539 -0.0510884 104.255 3.18012 75.1096C6.40424 46.0427 23.5944 21.8421 44.0615 10.2154C55.8907 3.49826 68.6496 0.491645 81.5668 0.0571633C91.0118 -0.191602 100.454 0.704304 109.775 2.73357C152.905 11.8229 192.428 39.4386 229.755 69.3396C267.076 99.2407 303.447 132.061 344.018 153.377C384.59 174.702 430.773 183.73 471.931 164.448C513.089 145.174 546.902 92.5844 544.891 35.0851C572.189 66.0637 595.386 105.002 605.659 150.501C615.933 196 611.805 248.537 589.617 285.937Z" fill="#3F3D56"/>
<path d="M392.93 226.514C395.58 226.514 397.729 223.682 397.729 220.19C397.729 216.697 395.58 213.866 392.93 213.866C390.279 213.866 388.131 216.697 388.131 220.19C388.131 223.682 390.279 226.514 392.93 226.514Z" fill="#F9A826"/>
<path d="M562.39 146.547C566.487 146.547 569.809 142.169 569.809 136.769C569.809 131.369 566.487 126.992 562.39 126.992C558.292 126.992 554.97 131.369 554.97 136.769C554.97 142.169 558.292 146.547 562.39 146.547Z" fill="#FF6584"/>
<path d="M75.7694 447.995C77.2834 447.995 78.5108 446.378 78.5108 444.383C78.5108 442.387 77.2834 440.77 75.7694 440.77C74.2554 440.77 73.0281 442.387 73.0281 444.383C73.0281 446.378 74.2554 447.995 75.7694 447.995Z" fill="#FF6584"/>
<path d="M154.454 236.702C154.456 239.836 154.168 242.958 153.597 246C148.151 244.931 142.724 243.732 137.35 242.255C123.588 238.455 110.163 232.776 97.293 225.31C99.3626 216.504 103.759 208.968 109.686 204.07C115.612 199.172 122.674 197.236 129.591 198.614C136.507 199.993 142.82 204.594 147.382 211.582C151.944 218.571 154.453 227.484 154.454 236.702V236.702Z" fill="#FF6584"/>
<path d="M514.915 203.898C516.463 203.898 517.718 202.244 517.718 200.204C517.718 198.163 516.463 196.509 514.915 196.509C513.366 196.509 512.111 198.163 512.111 200.204C512.111 202.244 513.366 203.898 514.915 203.898Z" fill="#F0F0F0"/>
<path d="M258.417 610.574C259.965 610.574 261.221 608.92 261.221 606.879C261.221 604.838 259.965 603.184 258.417 603.184C256.868 603.184 255.613 604.838 255.613 606.879C255.613 608.92 256.868 610.574 258.417 610.574Z" fill="#F0F0F0"/>
<path d="M298.639 661.843C300.187 661.843 301.443 660.189 301.443 658.148C301.443 656.107 300.187 654.453 298.639 654.453C297.09 654.453 295.835 656.107 295.835 658.148C295.835 660.189 297.09 661.843 298.639 661.843Z" fill="#F0F0F0"/>
<path d="M50.0538 515.856C51.6022 515.856 52.8574 514.202 52.8574 512.162C52.8574 510.121 51.6022 508.467 50.0538 508.467C48.5054 508.467 47.2501 510.121 47.2501 512.162C47.2501 514.202 48.5054 515.856 50.0538 515.856Z" fill="#F0F0F0"/>
<path d="M187.864 447.208C189.412 447.208 190.667 445.554 190.667 443.514C190.667 441.473 189.412 439.819 187.864 439.819C186.315 439.819 185.06 441.473 185.06 443.514C185.06 445.554 186.315 447.208 187.864 447.208Z" fill="#F0F0F0"/>
<path d="M174.017 80.5058C175.565 80.5058 176.82 78.8516 176.82 76.811C176.82 74.7704 175.565 73.1162 174.017 73.1162C172.468 73.1162 171.213 74.7704 171.213 76.811C171.213 78.8516 172.468 80.5058 174.017 80.5058Z" fill="#F0F0F0"/>
<path d="M343.476 369.871C345.025 369.871 346.28 368.216 346.28 366.176C346.28 364.135 345.025 362.481 343.476 362.481C341.928 362.481 340.673 364.135 340.673 366.176C340.673 368.216 341.928 369.871 343.476 369.871Z" fill="#F0F0F0"/>
<path d="M364.577 434.174C366.125 434.174 367.38 432.52 367.38 430.479C367.38 428.438 366.125 426.784 364.577 426.784C363.028 426.784 361.773 428.438 361.773 430.479C361.773 432.52 363.028 434.174 364.577 434.174Z" fill="#F0F0F0"/>
<path d="M111.858 88.6055C111.879 107.261 108.534 125.656 102.1 142.273C101.249 144.462 100.348 146.615 99.3963 148.729C89.9737 169.699 75.876 186.333 59.0226 196.366C49.5034 187.268 40.6074 177.088 32.4367 165.943C31.1904 164.24 29.9573 162.499 28.7374 160.721C27.577 159.018 26.4295 157.28 25.3088 155.507C10.7233 132.54 -0.0511335 104.256 3.18007 75.1105C6.40419 46.0437 23.5944 21.843 44.0614 10.2162C55.8906 3.49915 68.6496 0.492587 81.5667 0.0581055C91.6666 11.8126 99.6288 26.4131 104.863 42.7764C105.522 44.8358 106.128 46.9213 106.702 49.0329C110.124 61.7385 111.868 75.1232 111.858 88.6055V88.6055Z" fill="#F9A826"/>
<path d="M152.74 94.6878C152.74 112.788 139.328 129.577 114.971 141.977C110.098 144.462 104.882 146.713 99.3963 148.729C78.8633 156.271 54.4267 160.451 28.7374 160.72C27.5771 159.017 26.4296 157.279 25.3088 155.507C25.5857 155.515 25.8626 155.515 26.1395 155.515C54.0378 155.515 80.5052 150.858 102.1 142.272C106.089 140.682 109.914 138.961 113.547 137.111C135.939 125.718 148.784 110.251 148.784 94.6878C148.784 79.1246 135.939 63.6658 113.547 52.265C111.331 51.1353 109.05 50.0578 106.702 49.0324C106.129 46.9208 105.522 44.8353 104.863 42.7759C108.37 44.2184 111.74 45.7593 114.971 47.3988C139.328 59.7989 152.74 76.5959 152.74 94.6878Z" fill="#E4E4E4"/>
<path d="M30.2725 30.1059C31.8209 30.1059 33.0762 28.4517 33.0762 26.4111C33.0762 24.3705 31.8209 22.7163 30.2725 22.7163C28.7241 22.7163 27.4689 24.3705 27.4689 26.4111C27.4689 28.4517 28.7241 30.1059 30.2725 30.1059Z" fill="#F0F0F0"/>
<path d="M88.957 53.5678C90.5054 53.5678 91.7606 51.9136 91.7606 49.873C91.7606 47.8324 90.5054 46.1782 88.957 46.1782C87.4086 46.1782 86.1533 47.8324 86.1533 49.873C86.1533 51.9136 87.4086 53.5678 88.957 53.5678Z" fill="#F0F0F0"/>
<path d="M58.6256 123.169C73.6833 123.169 85.8899 107.082 85.8899 87.2384C85.8899 67.3946 73.6833 51.3081 58.6256 51.3081C43.568 51.3081 31.3615 67.3946 31.3615 87.2384C31.3615 107.082 43.568 123.169 58.6256 123.169Z" fill="#F0F0F0"/>
<path opacity="0.3" d="M562.127 277.405C556.008 279.786 542.517 281.541 527.681 282.619C512.852 283.687 496.585 284.157 480.523 284.609C452.407 285.408 424.293 286.21 396.182 287.016C392.318 287.129 388.441 287.233 384.55 287.328C382.605 285.634 380.66 283.913 378.735 282.158C382.183 282.184 385.632 282.158 389.054 282.071C403.672 281.689 416.049 280.185 430.146 279.473C451.84 278.369 475.261 279.238 497.871 279.681C520.481 280.133 546.243 279.968 562.127 277.405Z" fill="#F0F0F0"/>
<path opacity="0.3" d="M130.612 551.329L40.9886 452.936L128.056 555.27C128.225 555.644 128.458 555.96 128.738 556.192C129.018 556.423 129.336 556.563 129.665 556.6C129.994 556.638 130.325 556.571 130.63 556.406C130.936 556.241 131.207 555.982 131.422 555.651C131.637 555.32 131.788 554.927 131.864 554.503C131.94 554.08 131.939 553.638 131.86 553.216C131.78 552.793 131.626 552.402 131.409 552.073C131.192 551.745 130.919 551.49 130.612 551.329H130.612Z" fill="#F0F0F0"/>
<path d="M62.582 178.699C64.1304 178.699 65.3856 177.044 65.3856 175.004C65.3856 172.963 64.1304 171.309 62.582 171.309C61.0336 171.309 59.7783 172.963 59.7783 175.004C59.7783 177.044 61.0336 178.699 62.582 178.699Z" fill="#F0F0F0"/>
<path d="M298.05 603.125L309.646 603.124L315.163 544.176L298.048 544.177L298.05 603.125Z" fill="#FFB6B6"/>
<path d="M295.091 598.135L298.356 598.135L311.099 591.305L317.929 598.134H317.93C321.79 598.134 325.492 600.155 328.221 603.752C330.951 607.349 332.484 612.227 332.484 617.314V617.937L295.092 617.939L295.091 598.135Z" fill="#2F2E41"/>
<path d="M211.204 603.125L199.607 603.124L194.09 544.176L211.206 544.177L211.204 603.125Z" fill="#FFB6B6"/>
<path d="M214.161 617.939L176.769 617.937V617.314C176.769 612.227 178.303 607.349 181.032 603.752C183.762 600.155 187.463 598.134 191.323 598.134H191.324L198.154 591.305L210.898 598.135L214.162 598.135L214.161 617.939Z" fill="#2F2E41"/>
<path d="M252.756 151.363L241.014 163.146L209.822 174.032C209.822 174.032 220.999 277.404 215.724 284.356C210.449 291.308 215.206 291.495 214.146 300.525C213.086 309.556 208.862 333.399 208.862 333.399H301.958C301.958 333.399 302.708 318.581 298.119 315.372C293.53 312.163 302.35 297.185 298.599 294.681C294.849 292.177 300.124 270.453 300.124 270.453L311.555 199.328L281.149 167.977L276.525 153.293L252.756 151.363Z" fill="#F9A826"/>
<path d="M267.407 243.735C269.651 243.735 271.47 241.338 271.47 238.381C271.47 235.424 269.651 233.027 267.407 233.027C265.163 233.027 263.344 235.424 263.344 238.381C263.344 241.338 265.163 243.735 267.407 243.735Z" fill="#F2F2F2"/>
<path d="M208.862 333.399L205.023 463.675C205.023 463.675 188.447 559.895 191.327 562.425C194.206 564.954 195.426 580.038 195.426 580.038L211.741 582.567C211.741 582.567 211.741 572.449 215.58 568.654C219.419 564.86 254.93 386.521 254.93 386.521L289.574 558.949C289.574 558.949 290.441 568.655 293.32 568.655C296.2 568.655 297.159 582.568 297.159 582.568H313.475V568.655C313.475 568.655 320.806 565.591 317.927 555.473C315.048 545.354 301.958 333.399 301.958 333.399H208.862Z" fill="#2F2E41"/>
<path d="M264.949 143.6C275.815 143.6 284.624 131.991 284.624 117.671C284.624 103.351 275.815 91.7422 264.949 91.7422C254.083 91.7422 245.274 103.351 245.274 117.671C245.274 131.991 254.083 143.6 264.949 143.6Z" fill="#FFB6B6"/>
<path opacity="0.1" d="M298.599 234.111L302.438 237.906L304.357 220.198L298.599 234.111Z" fill="black"/>
<path d="M211.662 173.932C211.662 173.932 206.863 172.667 203.984 184.05C201.105 195.434 190.547 238.438 190.547 246.026C190.547 253.615 256.294 287.099 256.294 287.099L249.453 255.473L219.34 234.643L211.662 173.932Z" fill="#F9A826"/>
<path d="M259.344 282.41C265.534 282.41 270.553 275.797 270.553 267.638C270.553 259.48 265.534 252.866 259.344 252.866C253.153 252.866 248.134 259.48 248.134 267.638C248.134 275.797 253.153 282.41 259.344 282.41Z" fill="#FFB6B6"/>
<path opacity="0.1" d="M218.462 218.976L219.34 234.643L247.186 253.904L222.418 232.011L218.462 218.976Z" fill="black"/>
<path d="M285.404 221.209H285.043V208.168C285.043 207.177 284.895 206.195 284.607 205.279C284.319 204.363 283.897 203.531 283.365 202.83C282.833 202.13 282.202 201.574 281.507 201.194C280.812 200.815 280.067 200.62 279.315 200.62H258.349C257.597 200.62 256.852 200.815 256.157 201.194C255.462 201.574 254.831 202.13 254.299 202.83C253.767 203.531 253.345 204.363 253.057 205.279C252.77 206.195 252.621 207.177 252.621 208.168V279.715C252.621 280.707 252.77 281.688 253.057 282.604C253.345 283.52 253.767 284.352 254.299 285.053C254.831 285.754 255.462 286.31 256.157 286.689C256.852 287.068 257.597 287.263 258.349 287.263H279.315C280.067 287.263 280.812 287.068 281.507 286.689C282.202 286.31 282.833 285.754 283.365 285.053C283.897 284.352 284.319 283.52 284.607 282.604C284.895 281.688 285.043 280.707 285.043 279.715V230.493H285.404V221.209Z" fill="#F0F0F0"/>
<path d="M311.556 199.329C311.556 199.329 314.435 201.858 316.354 213.242C318.274 224.625 330.751 267.629 325.952 277.747C321.153 287.866 319.736 298.665 303.421 283.487L280.844 256.245L297.159 236.008L303.878 242.332L311.556 199.329Z" fill="#F9A826"/>
<path d="M269.088 232.508C271.739 232.508 273.887 229.677 273.887 226.184C273.887 222.692 271.739 219.86 269.088 219.86C266.438 219.86 264.29 222.692 264.29 226.184C264.29 229.677 266.438 232.508 269.088 232.508Z" fill="#F9A826"/>
<path d="M282.98 254.812C289.171 254.812 294.189 248.198 294.189 240.039C294.189 231.881 289.171 225.267 282.98 225.267C276.789 225.267 271.771 231.881 271.771 240.039C271.771 248.198 276.789 254.812 282.98 254.812Z" fill="#FFB6B6"/>
<path opacity="0.1" d="M217.933 266.259L250.112 285.018L217.039 276.499L217.933 266.259Z" fill="black"/>
<path d="M245.099 122.838L242.398 109.289C241.693 105.754 240.982 102.147 241.141 98.4982C241.299 94.849 242.474 91.0833 244.806 89.1063C247.139 87.1294 250.701 87.5964 252.202 90.6699C252.487 85.7623 255.875 81.9873 259.469 80.65C263.064 79.3127 266.88 79.8415 270.611 80.0672C274.342 80.2928 278.28 80.1353 281.5 77.6416C281.745 78.6119 281.729 79.664 281.454 80.6204C281.179 81.5768 280.662 82.3789 279.991 82.8913C280.791 83.1791 281.645 83.0555 282.379 82.5453C283.112 82.0352 283.672 81.1767 283.944 80.1436C283.968 82.9858 283.171 85.7338 281.714 87.8299C283.104 86.9214 284.7 86.7266 286.193 87.2836C287.685 87.8405 288.967 89.1093 289.789 90.8431C291.432 94.5976 290.512 99.3129 289.55 103.458L284.616 124.732C283.867 121.498 283.726 118.084 283.326 114.744C282.925 111.404 282.213 107.994 280.54 105.43C278.867 102.867 276.026 101.382 273.649 102.655C272.315 103.369 271.299 104.818 270.095 105.858C267.624 107.991 264.482 108.297 261.547 107.863C258.612 107.429 255.752 106.328 252.817 105.888C250.98 105.612 248.929 105.685 247.543 107.298C246.589 108.604 245.96 110.261 245.737 112.049C245.083 115.613 244.826 119.284 244.974 122.946" fill="#2F2E41"/>
</g>
<defs>
<clipPath id="clip0_159_97">
<rect width="611" height="683" fill="white"/>
</clipPath>
</defs>
</svg>
