<svg width="656" height="697" viewBox="0 0 656 697" fill="none" xmlns="http://www.w3.org/2000/svg">
<path d="M63.0365 246.97C60.5556 351.857 184.892 458.927 340.093 458.927C495.293 458.927 742.452 252.148 625.067 246.97C398.883 236.994 321.372 131.659 344.052 56.9897C384.669 -76.7376 67.9213 40.4489 63.0365 246.97Z" fill="#3F3D56"/>
<path d="M268.973 181.539L267.105 180.174L268.294 178.03L267.784 177.658L266.596 179.803L264.727 178.438L264.403 179.022L266.271 180.387L265.082 182.531L265.592 182.904L266.78 180.759L268.649 182.123L268.973 181.539Z" fill="#F9A826"/>
<path d="M407.922 336.795L406.053 335.431L407.242 333.286L406.732 332.915L405.544 335.059L403.675 333.694L403.351 334.279L405.219 335.644L404.03 337.788L404.54 338.16L405.728 336.016L407.597 337.38L407.922 336.795Z" fill="#F9A826"/>
<path d="M183.045 317.913L181.176 316.548L182.366 314.404L181.856 314.032L180.667 316.176L178.799 314.812L178.474 315.396L180.343 316.761L179.153 318.905L179.663 319.277L180.852 317.133L182.72 318.497L183.045 317.913Z" fill="#F9A826"/>
<path d="M351.245 418.62L349.377 417.255L350.566 415.111L350.056 414.739L348.868 416.883L346.999 415.519L346.675 416.103L348.543 417.468L347.354 419.612L347.864 419.984L349.052 417.84L350.921 419.204L351.245 418.62Z" fill="#F9A826"/>
<path d="M194.928 379.806L193.06 378.441L194.249 376.297L193.739 375.925L192.551 378.07L190.682 376.705L190.358 377.289L192.226 378.654L191.037 380.798L191.547 381.17L192.735 379.026L194.604 380.39L194.928 379.806Z" fill="#F9A826"/>
<path d="M571.551 328.403L569.683 327.038L570.872 324.894L570.362 324.523L569.174 326.667L567.305 325.302L566.981 325.886L568.849 327.251L567.66 329.395L568.17 329.768L569.358 327.624L571.227 328.987L571.551 328.403Z" fill="#F9A826"/>
<path d="M156.535 201.47L154.666 200.105L155.856 197.961L155.346 197.59L154.157 199.734L152.289 198.369L151.964 198.954L153.833 200.318L152.643 202.463L153.154 202.835L154.342 200.691L156.21 202.055L156.535 201.47Z" fill="#F9A826"/>
<path d="M312.852 225.052L310.235 223.142L311.9 220.14L311.187 219.62L309.522 222.621L306.907 220.711L306.453 221.53L309.069 223.439L307.404 226.441L308.117 226.963L309.782 223.961L312.397 225.871L312.852 225.052Z" fill="white"/>
<path d="M218.696 264.728C220.211 264.728 221.438 263.319 221.438 261.58C221.438 259.842 220.211 258.433 218.696 258.433C217.181 258.433 215.954 259.842 215.954 261.58C215.954 263.319 217.181 264.728 218.696 264.728Z" fill="#F9A826"/>
<path d="M111.742 264.728C113.257 264.728 114.485 263.319 114.485 261.58C114.485 259.842 113.257 258.433 111.742 258.433C110.228 258.433 109 259.842 109 261.58C109 263.319 110.228 264.728 111.742 264.728Z" fill="#F9A826"/>
<path d="M298.226 149.334C299.74 149.334 300.968 147.925 300.968 146.187C300.968 144.449 299.74 143.04 298.226 143.04C296.711 143.04 295.483 144.449 295.483 146.187C295.483 147.925 296.711 149.334 298.226 149.334Z" fill="#F9A826"/>
<path d="M272.63 341.307C274.144 341.307 275.372 339.898 275.372 338.16C275.372 336.422 274.144 335.013 272.63 335.013C271.115 335.013 269.887 336.422 269.887 338.16C269.887 339.898 271.115 341.307 272.63 341.307Z" fill="#F9A826"/>
<path d="M270.802 274.169C271.811 274.169 272.63 273.229 272.63 272.071C272.63 270.912 271.811 269.973 270.802 269.973C269.792 269.973 268.973 270.912 268.973 272.071C268.973 273.229 269.792 274.169 270.802 274.169Z" fill="#F9A826"/>
<path d="M458.199 366.483C459.209 366.483 460.027 365.544 460.027 364.385C460.027 363.227 459.209 362.287 458.199 362.287C457.189 362.287 456.371 363.227 456.371 364.385C456.371 365.544 457.189 366.483 458.199 366.483Z" fill="#FF6584"/>
<path d="M178.474 252.139C179.484 252.139 180.302 251.2 180.302 250.041C180.302 248.882 179.484 247.943 178.474 247.943C177.464 247.943 176.646 248.882 176.646 250.041C176.646 251.2 177.464 252.139 178.474 252.139Z" fill="#FF6584"/>
<path d="M292.741 82.1961C293.75 82.1961 294.569 81.2568 294.569 80.0981C294.569 78.9393 293.75 78 292.741 78C291.731 78 290.913 78.9393 290.913 80.0981C290.913 81.2568 291.731 82.1961 292.741 82.1961Z" fill="#FF6584"/>
<path d="M217.782 179.756C218.792 179.756 219.61 178.817 219.61 177.658C219.61 176.499 218.792 175.56 217.782 175.56C216.772 175.56 215.954 176.499 215.954 177.658C215.954 178.817 216.772 179.756 217.782 179.756Z" fill="#F9A826"/>
<path d="M240.635 109.471C241.645 109.471 242.463 108.532 242.463 107.373C242.463 106.214 241.645 105.275 240.635 105.275C239.625 105.275 238.807 106.214 238.807 107.373C238.807 108.532 239.625 109.471 240.635 109.471Z" fill="white"/>
<path d="M513.961 299.345C515.476 299.345 516.703 297.936 516.703 296.198C516.703 294.46 515.476 293.051 513.961 293.051C512.446 293.051 511.219 294.46 511.219 296.198C511.219 297.936 512.446 299.345 513.961 299.345Z" fill="#F9A826"/>
<path d="M332.048 310.885C333.563 310.885 334.791 309.476 334.791 307.738C334.791 306 333.563 304.591 332.048 304.591C330.534 304.591 329.306 306 329.306 307.738C329.306 309.476 330.534 310.885 332.048 310.885Z" fill="#F9A826"/>
<path d="M285.428 392.709C290.476 392.709 294.569 388.012 294.569 382.219C294.569 376.425 290.476 371.729 285.428 371.729C280.379 371.729 276.286 376.425 276.286 382.219C276.286 388.012 280.379 392.709 285.428 392.709Z" fill="#F9A826"/>
<path d="M396.038 271.022C397.552 271.022 398.78 269.613 398.78 267.875C398.78 266.137 397.552 264.728 396.038 264.728C394.523 264.728 393.295 266.137 393.295 267.875C393.295 269.613 394.523 271.022 396.038 271.022Z" fill="white"/>
<path d="M308.272 286.983C341.621 286.983 368.655 259.884 368.655 226.457C368.655 193.029 341.621 165.931 308.272 165.931C274.923 165.931 247.889 193.029 247.889 226.457C247.889 259.884 274.923 286.983 308.272 286.983Z" fill="#FFB8B8"/>
<path d="M263.203 256.72C263.203 256.72 274.58 342.684 257.078 352.333C239.575 361.982 361.217 362.859 361.217 362.859C361.217 362.859 334.088 288.298 346.34 265.492L263.203 256.72Z" fill="#FFB8B8"/>
<path d="M450.04 363.294L439.924 409.469L418.533 507.16L417.893 512.51L410.511 574.447L405.6 615.593L402.307 643.232C382.288 653.545 367.779 660.664 367.779 660.664C367.779 660.664 366.531 654.393 364.519 646.368C350.469 650.59 324.472 657.594 302.441 658.994C310.463 667.957 314.15 676.377 309.15 682.591C294.057 701.324 231.749 662.08 209.956 647.446C209.449 650.95 209.257 654.492 209.381 658.031L192.704 645.174L194.355 615.593L197.138 565.541L200.636 502.773C199.533 500.086 198.609 497.328 197.869 494.518C192.762 476.311 186.562 439.956 181.808 409.469C177.981 384.933 175.107 364.2 174.5 359.788C174.418 359.212 174.376 358.915 174.376 358.915L266.697 318.025C273.258 333.277 303.894 337.861 303.894 337.861C329.276 336.108 349.172 322.692 349.172 322.692L450.04 363.294Z" fill="#D0CDE1"/>
<path d="M374.783 643.125C374.783 643.125 370.874 644.466 364.519 646.368C350.469 650.59 324.472 657.594 302.441 658.994C283.472 660.212 267.444 657.282 264.512 644.878C263.256 639.544 265.038 635.157 268.922 631.552C280.516 620.778 310.8 616.918 334.818 615.593C341.601 615.222 347.874 615.05 353.097 614.984C361.965 614.868 367.778 615.049 367.778 615.049L367.918 615.593L374.783 643.125Z" fill="#A0616A"/>
<path d="M258.039 169.205L246.748 164.674C246.748 164.674 270.355 138.623 303.199 140.888L293.962 130.694C293.962 130.694 316.542 121.633 337.07 145.419C347.861 157.923 360.346 172.62 368.129 189.176H380.22L375.174 200.314L392.836 211.452L374.707 209.451C375.788 215.55 375.953 221.777 375.199 227.925C374.422 234.075 371.291 239.682 366.467 243.562C366.467 243.562 352.465 214.511 352.465 209.98V221.307C352.465 221.307 341.175 211.113 341.175 204.317L335.017 212.246L331.938 199.786L293.962 212.246L300.12 202.052L276.513 205.45L285.751 192.99C285.751 192.99 259.065 207.715 258.039 220.174C257.012 232.633 249.201 244.439 249.201 244.439C249.201 244.439 228.274 186.194 258.039 169.205Z" fill="#2F2E41"/>
<path d="M515.673 575.575C509.523 582.258 494.283 592.324 475.807 603.222C468.934 607.271 461.618 611.444 454.154 615.593C436.343 625.494 417.695 635.306 402.307 643.232C382.288 653.545 367.779 660.665 367.779 660.665C367.779 660.665 366.53 654.393 364.519 646.368C361.825 635.626 357.769 621.741 353.54 615.593C353.392 615.379 353.245 615.181 353.097 614.984C351.865 613.362 350.625 612.416 349.402 612.416L410.511 574.447L436.918 558.035L417.893 512.51L394.03 455.405L408.433 409.469L422.91 363.294H450.04C450.04 363.294 459.023 382.95 470.511 410.358C472.227 414.457 474.001 418.729 475.807 423.141C499.44 480.756 528.902 561.212 515.673 575.575Z" fill="#D0CDE1"/>
<path d="M309.149 682.592C294.057 701.325 231.749 662.08 209.956 647.446C205.21 644.261 202.385 642.244 202.385 642.244L222.322 615.593L228.637 607.156C228.637 607.156 234.286 610.161 242.637 615.05C242.941 615.231 243.245 615.412 243.557 615.593C250.758 619.832 259.799 625.371 268.922 631.552C281.51 640.088 294.238 649.825 302.441 658.994C310.463 667.957 314.15 676.377 309.149 682.592Z" fill="#A0616A"/>
<path d="M242.637 615.05C240.409 615.041 238.184 615.223 235.986 615.593C217.108 618.844 211.541 635.972 209.956 647.446C209.449 650.95 209.256 654.492 209.381 658.031L192.704 645.174L186.628 640.491C172.003 635.38 158.972 626.301 147.673 615.593C137.871 606.139 129.078 595.687 121.438 584.406C113.827 573.288 107.043 561.624 101.139 549.508C99.492 546.127 98.6065 542.424 98.5455 538.662C98.4845 534.9 99.2494 531.17 100.786 527.737L121.438 481.604L151.623 414.177C151.844 412.572 152.088 411.003 152.353 409.469C158.34 375.064 174.376 359.788 174.376 359.788H186.628L194.823 409.469L205.005 471.192L197.869 494.518L181.381 548.388L197.138 565.541L242.637 615.05Z" fill="#D0CDE1"/>
<path d="M256.503 471.241L266.977 483.489C270.868 482.745 274.932 481.871 279.117 480.89L276.109 471.241L283.464 479.842C327.803 468.911 382.761 447.659 382.761 447.659C382.761 447.659 323.428 452.02 279.127 442.318C259.526 438.026 239.359 447.766 231.316 466.19C226.64 476.898 227.375 486.176 243.956 486.176C249.559 486.08 255.146 485.553 260.668 484.6L256.503 471.241Z" fill="#F9A826"/>
<path d="M495.268 672.55V677.546C495.271 678.917 495.018 680.277 494.521 681.554C494.3 682.124 494.034 682.674 493.724 683.2C492.746 684.847 491.357 686.21 489.694 687.157C488.032 688.103 486.152 688.601 484.24 688.6H117.562C115.65 688.601 113.771 688.103 112.108 687.157C110.445 686.21 109.057 684.847 108.078 683.2C107.768 682.674 107.502 682.124 107.281 681.554C106.785 680.277 106.531 678.917 106.534 677.546V672.55C106.534 671.098 106.819 669.66 107.373 668.319C107.927 666.978 108.739 665.759 109.763 664.733C110.787 663.706 112.003 662.892 113.341 662.336C114.68 661.781 116.114 661.495 117.562 661.496H138.698V659.166C138.698 659.106 138.71 659.046 138.733 658.99C138.756 658.934 138.79 658.883 138.833 658.84C138.875 658.798 138.926 658.764 138.982 658.74C139.038 658.717 139.098 658.705 139.158 658.706H150.186C150.246 658.705 150.306 658.717 150.362 658.74C150.418 658.764 150.468 658.798 150.511 658.84C150.554 658.883 150.588 658.934 150.611 658.99C150.634 659.046 150.646 659.106 150.646 659.166V661.496H157.535V659.166C157.535 659.106 157.547 659.046 157.57 658.99C157.593 658.934 157.627 658.883 157.669 658.84C157.712 658.798 157.763 658.764 157.819 658.74C157.874 658.717 157.934 658.705 157.995 658.706H169.023C169.083 658.705 169.143 658.717 169.199 658.74C169.255 658.764 169.305 658.798 169.348 658.84C169.391 658.883 169.425 658.934 169.448 658.99C169.471 659.046 169.483 659.106 169.482 659.166V661.496H176.38V659.166C176.38 659.106 176.392 659.046 176.415 658.99C176.438 658.934 176.472 658.883 176.514 658.84C176.557 658.798 176.608 658.764 176.664 658.74C176.72 658.717 176.779 658.705 176.84 658.706H187.868C187.928 658.705 187.988 658.717 188.044 658.74C188.1 658.764 188.15 658.798 188.193 658.84C188.236 658.883 188.27 658.934 188.293 658.99C188.316 659.046 188.328 659.106 188.328 659.166V661.496H195.217V659.166C195.217 659.106 195.229 659.046 195.252 658.99C195.275 658.934 195.309 658.883 195.351 658.84C195.394 658.798 195.445 658.764 195.501 658.74C195.556 658.717 195.616 658.705 195.677 658.706H206.705C206.765 658.705 206.825 658.717 206.881 658.74C206.936 658.764 206.987 658.798 207.03 658.84C207.073 658.883 207.107 658.934 207.13 658.99C207.153 659.046 207.164 659.106 207.164 659.166V661.496H214.054V659.166C214.054 659.106 214.065 659.046 214.089 658.99C214.112 658.934 214.145 658.883 214.188 658.84C214.231 658.798 214.282 658.764 214.337 658.74C214.393 658.717 214.453 658.705 214.514 658.706H225.541C225.602 658.705 225.662 658.717 225.718 658.74C225.773 658.764 225.824 658.798 225.867 658.84C225.909 658.883 225.943 658.934 225.966 658.99C225.99 659.046 226.001 659.106 226.001 659.166V661.496H232.899V659.166C232.899 659.106 232.911 659.046 232.934 658.99C232.957 658.934 232.991 658.883 233.033 658.84C233.076 658.798 233.127 658.764 233.183 658.74C233.238 658.717 233.298 658.705 233.359 658.706H244.386C244.447 658.705 244.507 658.717 244.563 658.74C244.618 658.764 244.669 658.798 244.712 658.84C244.755 658.883 244.788 658.934 244.812 658.99C244.835 659.046 244.846 659.106 244.846 659.166V661.496H251.736V659.166C251.736 659.106 251.747 659.046 251.77 658.99C251.794 658.934 251.827 658.883 251.87 658.84C251.913 658.798 251.964 658.764 252.019 658.74C252.075 658.717 252.135 658.705 252.195 658.706H338.579C338.639 658.705 338.699 658.717 338.755 658.74C338.811 658.764 338.862 658.798 338.904 658.84C338.947 658.883 338.981 658.934 339.004 658.99C339.027 659.046 339.039 659.106 339.039 659.166V661.496H345.936V659.166C345.936 659.106 345.948 659.046 345.971 658.99C345.994 658.934 346.028 658.883 346.071 658.84C346.114 658.798 346.164 658.764 346.22 658.74C346.276 658.717 346.336 658.705 346.396 658.706H357.424C357.546 658.707 357.662 658.756 357.748 658.842C357.834 658.928 357.883 659.045 357.884 659.166V661.496H364.773V659.166C364.773 659.106 364.785 659.046 364.808 658.99C364.831 658.934 364.865 658.883 364.908 658.84C364.95 658.798 365.001 658.764 365.057 658.74C365.113 658.717 365.173 658.705 365.233 658.706H376.261C376.321 658.705 376.381 658.717 376.437 658.74C376.493 658.764 376.544 658.797 376.586 658.84C376.629 658.883 376.663 658.934 376.686 658.99C376.709 659.046 376.721 659.106 376.721 659.166V661.496H383.61V659.166C383.61 659.106 383.622 659.046 383.645 658.99C383.668 658.934 383.702 658.883 383.745 658.84C383.787 658.798 383.838 658.764 383.894 658.74C383.95 658.717 384.01 658.705 384.07 658.706H395.098C395.158 658.705 395.218 658.717 395.274 658.74C395.33 658.764 395.38 658.798 395.423 658.84C395.466 658.883 395.5 658.934 395.523 658.99C395.546 659.046 395.558 659.106 395.558 659.166V661.496H402.455V659.166C402.455 659.106 402.467 659.046 402.49 658.99C402.513 658.934 402.547 658.883 402.59 658.84C402.632 658.798 402.683 658.764 402.739 658.74C402.795 658.717 402.855 658.705 402.915 658.706H413.943C414.064 658.707 414.179 658.756 414.263 658.843C414.348 658.929 414.395 659.045 414.395 659.166V661.496H421.292V659.166C421.292 659.106 421.304 659.046 421.327 658.99C421.35 658.934 421.384 658.883 421.427 658.84C421.469 658.798 421.52 658.764 421.576 658.74C421.632 658.717 421.691 658.705 421.752 658.706H432.78C432.84 658.705 432.9 658.717 432.956 658.74C433.012 658.764 433.062 658.798 433.105 658.84C433.148 658.883 433.182 658.934 433.205 658.99C433.228 659.046 433.24 659.106 433.24 659.166V661.496H440.129V659.166C440.129 659.106 440.141 659.046 440.164 658.99C440.187 658.934 440.221 658.883 440.263 658.84C440.306 658.798 440.357 658.764 440.413 658.74C440.469 658.717 440.528 658.705 440.589 658.706H451.617C451.677 658.705 451.737 658.717 451.793 658.74C451.849 658.764 451.899 658.798 451.942 658.84C451.985 658.883 452.019 658.934 452.042 658.99C452.065 659.046 452.077 659.106 452.076 659.166V661.496H484.24C485.689 661.495 487.123 661.781 488.461 662.336C489.799 662.892 491.015 663.706 492.039 664.733C493.063 665.759 493.875 666.978 494.43 668.319C494.984 669.66 495.269 671.098 495.268 672.55Z" fill="#3F3D56"/>
<path d="M601.892 681.554H0V683.2H601.892V681.554Z" fill="#3F3D56"/>
<path d="M465.744 462.147H329.071V459.323H267.099V462.147H129.863C127.411 462.147 125.06 463.123 123.326 464.861C121.592 466.599 120.618 468.956 120.618 471.413V659.003C120.618 661.46 121.592 663.817 123.326 665.555C125.06 667.293 127.411 668.269 129.863 668.269H465.744C468.195 668.269 470.547 667.293 472.281 665.555C474.014 663.817 474.988 661.46 474.988 659.003V471.413C474.988 470.196 474.749 468.991 474.285 467.867C473.82 466.743 473.139 465.721 472.281 464.861C471.422 464 470.403 463.318 469.281 462.852C468.16 462.386 466.958 462.147 465.744 462.147Z" fill="#3F3D56"/>
<path d="M298.072 548.215C309.41 548.215 318.601 539.003 318.601 527.639C318.601 516.274 309.41 507.062 298.072 507.062C286.735 507.062 277.544 516.274 277.544 527.639C277.544 539.003 286.735 548.215 298.072 548.215Z" stroke="#D0CDE1" stroke-width="2" stroke-miterlimit="10"/>
<path d="M291.503 555.623C302.841 555.623 312.032 546.411 312.032 535.046C312.032 523.682 302.841 514.469 291.503 514.469C280.166 514.469 270.975 523.682 270.975 535.046C270.975 546.411 280.166 555.623 291.503 555.623Z" fill="#D0CDE1"/>
<path d="M39.37 673.238H16.3782V696.284H39.37V673.238Z" fill="#D0CDE1"/>
<path d="M25.4138 655.131V683.116H53.3325V655.131H25.4138ZM52.1172 681.897H26.6209V656.349H52.1172V681.897Z" fill="#3F3D56"/>
<path d="M571.466 673.238H548.474V696.284H571.466V673.238Z" fill="#D0CDE1"/>
<path d="M557.51 655.131V683.116H585.429V655.131H557.51ZM584.214 681.897H558.717V656.349H584.214V681.897Z" fill="#3F3D56"/>
<path d="M73.979 622.645C74.7452 648.942 59.416 658.58 40.1784 659.143C39.7315 659.156 39.2867 659.164 38.8438 659.167C37.9517 659.174 37.0682 659.159 36.1934 659.122C18.7949 658.398 5.02296 649.141 4.31041 624.684C3.57303 599.375 34.9133 566.49 37.2647 564.058L37.2689 564.055C37.3582 563.963 37.4039 563.916 37.4039 563.916C37.4039 563.916 73.2128 596.35 73.979 622.645Z" fill="#D0CDE1"/>
<path d="M38.7933 655.157L51.0137 636.941L38.8183 657.117L38.8438 659.167C37.9516 659.174 37.0682 659.159 36.1934 659.122L36.7995 632.774L36.7829 632.571L36.8052 632.531L36.8632 630.042L23.4805 610.565L36.8475 628.178L36.8949 628.704L37.3527 608.797L25.7936 588.605L37.3856 605.3L37.2646 564.058L37.2649 563.92L37.2688 564.055L38.0361 596.56L48.5709 583.357L38.0706 599.36L38.3005 617.167L47.9947 599.788L38.3362 619.785L38.4641 629.686L52.5621 605.478L38.507 633.14L38.7933 655.157Z" fill="#3F3D56"/>
<path d="M606.075 622.645C606.841 648.942 591.512 658.58 572.274 659.143C571.827 659.156 571.383 659.164 570.94 659.167C570.048 659.174 569.164 659.159 568.289 659.122C550.891 658.398 537.119 649.141 536.406 624.684C535.669 599.375 567.009 566.49 569.361 564.058L569.365 564.055C569.454 563.963 569.5 563.916 569.5 563.916C569.5 563.916 605.309 596.35 606.075 622.645Z" fill="#D0CDE1"/>
<path d="M570.89 655.157L583.11 636.941L570.915 657.117L570.94 659.167C570.048 659.174 569.164 659.159 568.29 659.122L568.896 632.774L568.879 632.571L568.901 632.531L568.959 630.042L555.577 610.565L568.944 628.178L568.991 628.704L569.449 608.797L557.89 588.605L569.482 605.3L569.361 564.058L569.361 563.92L569.365 564.055L570.132 596.56L580.667 583.357L570.167 599.36L570.397 617.167L580.091 599.788L570.432 619.785L570.56 629.686L584.658 605.478L570.603 633.14L570.89 655.157Z" fill="#3F3D56"/>
</svg>
